# xmcd
#
# Track frame offsets: 
#        150
#        13977
#        29760
#        89265
#        145851
#
# Disc length: 2647 seconds
#
# Revision: 0
# Processed by: cddbd v1.5.2PL0 Copyright (c) Steve Scherf et al.
# Submitted via: ExactAudioCopy v1.0b1
#
DISCID=400a5505
DTITLE=Quicksilver Messenger Service  - Maiden of the Cancer Moon - Di
DTITLE=sc 2
DYEAR=1900
DGENRE=
TTITLE0=Light Your Windows
TTITLE1=Dino’S Song
TTITLE2=The Fool
TTITLE3=Who Do You Love?
TTITLE4=Mona
EXTD=
EXTT0=
EXTT1=
EXTT2=
EXTT3=
EXTT4=
PLAYORDER=
